<?xml version="1.0" ?><!DOCTYPE svg  PUBLIC '-//W3C//DTD SVG 1.1//EN'  'http://www.w3.org/Graphics/SVG/1.1/DTD/svg11.dtd'><svg enable-background="new 0 0 90 90" height="90px" id="Layer_1" version="1.1" viewBox="0 0 90 90" width="90px" xml:space="preserve" xmlns="http://www.w3.org/2000/svg" xmlns:xlink="http://www.w3.org/1999/xlink"><circle cx="45" cy="45" fill="#81D4EF" r="45"/><g><path d="M59,56H33c-1.657,0-3-1.343-3-3V43c0-1.657,1.343-3,3-3h26c1.657,0,3,1.343,3,3v10   C62,54.657,60.657,56,59,56z" fill="#DAE3E6"/><path d="M59,57H33c-2.206,0-4-1.794-4-4V43c0-2.206,1.794-4,4-4h26c2.206,0,4,1.794,4,4v10   C63,55.206,61.206,57,59,57z M33,41c-1.103,0-2,0.897-2,2v10c0,1.103,0.897,2,2,2h26c1.103,0,2-0.897,2-2V43c0-1.103-0.897-2-2-2   H33z" fill="#232E38"/></g><g><path d="M55,36H37c-1.657,0-3-1.343-3-3V19c0-1.657,1.343-3,3-3h18c1.657,0,3,1.343,3,3v14   C58,34.657,56.657,36,55,36z" fill="#DAE3E6"/><path d="M55,37H37c-2.206,0-4-1.794-4-4V19c0-2.206,1.794-4,4-4h18c2.206,0,4,1.794,4,4v14   C59,35.206,57.206,37,55,37z M37,17c-1.103,0-2,0.897-2,2v14c0,1.103,0.897,2,2,2h18c1.103,0,2-0.897,2-2V19c0-1.103-0.897-2-2-2   H37z" fill="#232E38"/></g><g><circle cx="41" cy="23" fill="#81D4EF" r="3"/><path d="M41,27c-2.206,0-4-1.794-4-4s1.794-4,4-4s4,1.794,4,4S43.206,27,41,27z M41,21c-1.103,0-2,0.897-2,2   s0.897,2,2,2s2-0.897,2-2S42.103,21,41,21z" fill="#232E38"/></g><g><circle cx="51" cy="23" fill="#81D4EF" r="3"/><path d="M51,27c-2.206,0-4-1.794-4-4s1.794-4,4-4s4,1.794,4,4S53.206,27,51,27z M51,21c-1.103,0-2,0.897-2,2   s0.897,2,2,2s2-0.897,2-2S52.103,21,51,21z" fill="#232E38"/></g><g><line fill="#DAE3E6" x1="38" x2="38" y1="30" y2="32"/><path d="M38,33c-0.553,0-1-0.448-1-1v-2c0-0.552,0.447-1,1-1s1,0.448,1,1v2C39,32.552,38.553,33,38,33z" fill="#232E38"/></g><g><line fill="#DAE3E6" x1="42" x2="42" y1="30" y2="32"/><path d="M42,33c-0.553,0-1-0.448-1-1v-2c0-0.552,0.447-1,1-1s1,0.448,1,1v2C43,32.552,42.553,33,42,33z" fill="#232E38"/></g><g><line fill="#DAE3E6" x1="46" x2="46" y1="30" y2="32"/><path d="M46,33c-0.553,0-1-0.448-1-1v-2c0-0.552,0.447-1,1-1s1,0.448,1,1v2C47,32.552,46.553,33,46,33z" fill="#232E38"/></g><g><line fill="#DAE3E6" x1="50" x2="50" y1="30" y2="32"/><path d="M50,33c-0.553,0-1-0.448-1-1v-2c0-0.552,0.447-1,1-1s1,0.448,1,1v2C51,32.552,50.553,33,50,33z" fill="#232E38"/></g><g><line fill="#DAE3E6" x1="54" x2="54" y1="30" y2="32"/><path d="M54,33c-0.553,0-1-0.448-1-1v-2c0-0.552,0.447-1,1-1s1,0.448,1,1v2C55,32.552,54.553,33,54,33z" fill="#232E38"/></g><g><line fill="#FFCC00" x1="36" x2="36" y1="71" y2="74"/><path d="M36,75c-0.553,0-1-0.448-1-1v-3c0-0.552,0.447-1,1-1s1,0.448,1,1v3C37,74.552,36.553,75,36,75z" fill="#383128"/></g><g><line fill="#FFCC00" x1="40" x2="40" y1="71" y2="74"/><path d="M40,75c-0.553,0-1-0.448-1-1v-3c0-0.552,0.447-1,1-1s1,0.448,1,1v3C41,74.552,40.553,75,40,75z" fill="#383128"/></g><g><line fill="#FFCC00" x1="52" x2="52" y1="71" y2="74"/><path d="M52,75c-0.553,0-1-0.448-1-1v-3c0-0.552,0.447-1,1-1s1,0.448,1,1v3C53,74.552,52.553,75,52,75z" fill="#383128"/></g><g><line fill="#FFCC00" x1="56" x2="56" y1="71" y2="74"/><path d="M56,75c-0.553,0-1-0.448-1-1v-3c0-0.552,0.447-1,1-1s1,0.448,1,1v3C57,74.552,56.553,75,56,75z" fill="#383128"/></g><g><path d="M60,30h-2v-8h2c1.105,0,2,0.895,2,2v4C62,29.105,61.105,30,60,30z" fill="#DAE3E6"/><path d="M60,31h-2c-0.553,0-1-0.448-1-1v-8c0-0.552,0.447-1,1-1h2c1.654,0,3,1.346,3,3v4C63,29.654,61.654,31,60,31   z M59,29h1c0.552,0,1-0.449,1-1v-4c0-0.551-0.448-1-1-1h-1V29z" fill="#232E38"/></g><g><path d="M34,30h-2c-1.105,0-2-0.895-2-2v-4c0-1.105,0.895-2,2-2h2V30z" fill="#DAE3E6"/><path d="M34,31h-2c-1.654,0-3-1.346-3-3v-4c0-1.654,1.346-3,3-3h2c0.553,0,1,0.448,1,1v8C35,30.552,34.553,31,34,31   z M32,23c-0.552,0-1,0.449-1,1v4c0,0.551,0.448,1,1,1h1v-6H32z" fill="#232E38"/></g><g><rect fill="#DAE3E6" height="4" width="12" x="40" y="36"/><path d="M52,41H40c-0.553,0-1-0.448-1-1v-4c0-0.552,0.447-1,1-1h12c0.553,0,1,0.448,1,1v4   C53,40.552,52.553,41,52,41z M41,39h10v-2H41V39z" fill="#232E38"/></g><path d="M30,43h-6c-2.757,0-5-2.243-5-5v-3c0-0.552,0.447-1,1-1s1,0.448,1,1v3c0,1.654,1.346,3,3,3h6  c0.553,0,1,0.448,1,1S30.553,43,30,43z" fill="#232E38"/><path d="M18,29c-0.553,0-1-0.448-1-1v-4c0-0.552,0.447-1,1-1s1,0.448,1,1v4C19,28.552,18.553,29,18,29z" fill="#232E38"/><path d="M22,29c-0.553,0-1-0.448-1-1v-4c0-0.552,0.447-1,1-1s1,0.448,1,1v4C23,28.552,22.553,29,22,29z" fill="#232E38"/><path d="M70,50c-0.553,0-1-0.448-1-1v-3c0-1.654-1.346-3-3-3h-4c-0.553,0-1-0.448-1-1s0.447-1,1-1h4  c2.757,0,5,2.243,5,5v3C71,49.552,70.553,50,70,50z" fill="#232E38"/><path d="M72,61c-0.553,0-1-0.448-1-1v-4c0-0.552,0.447-1,1-1s1,0.448,1,1v4C73,60.552,72.553,61,72,61z" fill="#232E38"/><path d="M68,61c-0.553,0-1-0.448-1-1v-4c0-0.552,0.447-1,1-1s1,0.448,1,1v4C69,60.552,68.553,61,68,61z" fill="#232E38"/><g><rect fill="#E45544" height="4" width="6" x="36" y="46"/><path d="M42,51h-6c-0.553,0-1-0.448-1-1v-4c0-0.552,0.447-1,1-1h6c0.553,0,1,0.448,1,1v4C43,50.552,42.553,51,42,51   z M37,49h4v-2h-4V49z" fill="#3F291E"/></g><path d="M38,65c-0.553,0-1-0.448-1-1v-8c0-0.552,0.447-1,1-1s1,0.448,1,1v8C39,64.552,38.553,65,38,65z" fill="#232E38"/><path d="M54,65c-0.553,0-1-0.448-1-1v-8c0-0.552,0.447-1,1-1s1,0.448,1,1v8C55,64.552,54.553,65,54,65z" fill="#232E38"/><g><line fill="#DAE3E6" x1="48" x2="48" y1="47" y2="49"/><path d="M48,50c-0.553,0-1-0.448-1-1v-2c0-0.552,0.447-1,1-1s1,0.448,1,1v2C49,49.552,48.553,50,48,50z" fill="#232E38"/></g><g><line fill="#DAE3E6" x1="52" x2="52" y1="47" y2="49"/><path d="M52,50c-0.553,0-1-0.448-1-1v-2c0-0.552,0.447-1,1-1s1,0.448,1,1v2C53,49.552,52.553,50,52,50z" fill="#232E38"/></g><g><line fill="#DAE3E6" x1="56" x2="56" y1="47" y2="49"/><path d="M56,50c-0.553,0-1-0.448-1-1v-2c0-0.552,0.447-1,1-1s1,0.448,1,1v2C57,49.552,56.553,50,56,50z" fill="#232E38"/></g><path d="  M78,56" fill="#DAE3E6" stroke="#232E38" stroke-linecap="round" stroke-linejoin="round" stroke-miterlimit="10" stroke-width="2"/><g><path d="M20,35L20,35c-2.209,0-4-1.791-4-4v-3h8v3C24,33.209,22.209,35,20,35z" fill="#FFCC00"/><path d="M20,36c-2.757,0-5-2.243-5-5v-3c0-0.552,0.447-1,1-1h8c0.553,0,1,0.448,1,1v3C25,33.757,22.757,36,20,36z    M17,29v2c0,1.654,1.346,3,3,3s3-1.346,3-3v-2H17z" fill="#383128"/></g><g><path d="M70,49L70,49c2.209,0,4,1.791,4,4v3h-8v-3C66,50.791,67.791,49,70,49z" fill="#FFCC00"/><path d="M74,57h-8c-0.553,0-1-0.448-1-1v-3c0-2.757,2.243-5,5-5s5,2.243,5,5v3C75,56.552,74.553,57,74,57z M67,55h6   v-2c0-1.654-1.346-3-3-3s-3,1.346-3,3V55z" fill="#383128"/></g><g><path d="M44,74H32v-4c0-3.314,2.686-6,6-6l0,0c3.314,0,6,2.686,6,6V74z" fill="#FFCC00"/><path d="M44,75H32c-0.553,0-1-0.448-1-1v-4c0-3.86,3.141-7,7-7s7,3.14,7,7v4C45,74.552,44.553,75,44,75z M33,73h10   v-3c0-2.757-2.243-5-5-5s-5,2.243-5,5V73z" fill="#383128"/></g><g><path d="M60,74H48v-4c0-3.314,2.686-6,6-6l0,0c3.314,0,6,2.686,6,6V74z" fill="#FFCC00"/><path d="M60,75H48c-0.553,0-1-0.448-1-1v-4c0-3.86,3.141-7,7-7s7,3.14,7,7v4C61,74.552,60.553,75,60,75z M49,73h10   v-3c0-2.757-2.243-5-5-5s-5,2.243-5,5V73z" fill="#383128"/></g></svg>