<?xml version="1.0" ?><!DOCTYPE svg  PUBLIC '-//W3C//DTD SVG 1.1//EN'  'http://www.w3.org/Graphics/SVG/1.1/DTD/svg11.dtd'><svg enable-background="new 0 0 90 90" height="90px" id="Layer_1" version="1.1" viewBox="0 0 90 90" width="90px" xml:space="preserve" xmlns="http://www.w3.org/2000/svg" xmlns:xlink="http://www.w3.org/1999/xlink"><circle cx="45" cy="45" fill="#F1C40E" r="45"/><g><path d="M64.709,33.138C66.798,36.601,68,40.66,68,45c0,12.702-10.298,23-23,23c-12.703,0-23-10.297-23-23   s10.297-23,23-23c4.258,0,8.246,1.157,11.666,3.174" fill="#E45544"/><path d="M45,69c-13.233,0-24-10.767-24-24s10.767-24,24-24c4.289,0,8.499,1.146,12.174,3.313   c0.476,0.28,0.634,0.894,0.354,1.369c-0.281,0.476-0.896,0.634-1.369,0.354C52.791,24.049,48.933,23,45,23   c-12.131,0-22,9.869-22,22s9.869,22,22,22s22-9.869,22-22c0-4.008-1.088-7.932-3.147-11.346c-0.285-0.473-0.133-1.088,0.34-1.373   c0.475-0.285,1.088-0.133,1.373,0.34C67.813,36.347,69,40.628,69,45C69,58.233,58.233,69,45,69z" fill="#3F291E"/></g><g><circle cx="45" cy="45" fill="#EFEAE1" r="15"/><path d="M45,61c-8.822,0-16-7.178-16-16s7.178-16,16-16s16,7.178,16,16S53.822,61,45,61z M45,31   c-7.72,0-14,6.28-14,14s6.28,14,14,14s14-6.28,14-14S52.72,31,45,31z" fill="#383128"/></g><g><circle cx="45" cy="45" fill="#E45544" r="7"/><path d="M45,53c-4.411,0-8-3.589-8-8s3.589-8,8-8s8,3.589,8,8S49.411,53,45,53z M45,39c-3.309,0-6,2.691-6,6   s2.691,6,6,6s6-2.691,6-6S48.309,39,45,39z" fill="#3F291E"/></g><g><circle cx="45" cy="45" fill="#EFEAE1" r="1"/><circle cx="45" cy="45" fill="#383128" r="2"/></g><path d="M27.999,75c-0.161,0-0.325-0.039-0.477-0.122c-0.485-0.264-0.665-0.871-0.401-1.356l5-9.2  c0.264-0.485,0.873-0.665,1.356-0.401c0.485,0.264,0.665,0.871,0.401,1.356l-5,9.2C28.697,74.811,28.354,75,27.999,75z" fill="#3F291E"/><path d="M62.001,75c-0.354,0-0.698-0.189-0.88-0.522l-5-9.2c-0.264-0.485-0.084-1.092,0.401-1.356  c0.483-0.264,1.093-0.084,1.356,0.401l5,9.2c0.264,0.485,0.084,1.092-0.401,1.356C62.326,74.961,62.162,75,62.001,75z" fill="#3F291E"/><path d="M45,46c-0.256,0-0.512-0.098-0.707-0.293c-0.391-0.391-0.391-1.023,0-1.414l20-20  c0.391-0.391,1.023-0.391,1.414,0s0.391,1.023,0,1.414l-20,20C45.512,45.902,45.256,46,45,46z" fill="#383128"/><g><path d="M64.757,30H60v-4.757c0-0.796,0.316-1.559,0.879-2.121L68,16v6h6l-7.121,7.121   C66.316,29.684,65.553,30,64.757,30z" fill="#EFEAE1"/><path d="M64.758,31H60c-0.553,0-1-0.448-1-1v-4.757c0-1.068,0.416-2.072,1.172-2.829l7.121-7.121   c0.287-0.286,0.716-0.371,1.09-0.217C68.757,15.231,69,15.596,69,16v5h5c0.404,0,0.77,0.244,0.924,0.617   c0.155,0.374,0.069,0.804-0.217,1.09l-7.121,7.121C66.842,30.573,65.812,31,64.758,31z M61,29h3.758   c0.526,0,1.042-0.213,1.414-0.586L71.586,23H68c-0.553,0-1-0.448-1-1v-3.586l-5.414,5.414C61.208,24.207,61,24.709,61,25.243V29z" fill="#383128"/></g></svg>