<svg width="192" height="44" viewBox="0 0 192 44" fill="none" xmlns="http://www.w3.org/2000/svg">
<path d="M1.67579 37.0829C1.59961 36.8524 1.52344 36.6602 1.48535 36.5834C1.44727 36.4681 1.33301 36.4297 1.14258 36.4297V36.2375H3.65627V36.4297C3.46584 36.4297 3.16115 36.4681 3.16115 36.7371C3.16115 37.0445 3.50393 37.9668 3.61818 38.3126L4.07522 39.7345L4.98929 37.5056C4.91312 37.2367 4.76077 36.8139 4.64651 36.6218C4.49417 36.4297 4.26565 36.3912 4.07522 36.3912V36.1991H6.77934V36.3912C6.51274 36.3912 6.24613 36.4297 6.24613 36.6987C6.24613 36.8524 6.32231 37.0445 6.36039 37.1982L7.12212 39.5808L7.96002 37.3135C8.03619 37.1214 8.11236 36.9292 8.11236 36.7371C8.11236 36.3912 7.80767 36.3912 7.54107 36.3912V36.1991H8.98834V36.3912C8.72174 36.3912 8.64557 36.5834 8.5694 36.8524L6.74126 41.9633H6.58891L5.21781 38.0052L3.5801 41.9633H3.42775L1.67579 37.0829Z" fill="#333333"/>
<path d="M9.63599 41.6943C10.0168 41.6943 10.1692 41.6559 10.1692 41.1563V38.3127C10.1692 37.8131 10.0168 37.7747 9.63599 37.7747V37.621H11.8069V37.7747C11.426 37.7747 11.2737 37.8131 11.2737 38.3127V39.5424H12.8352V38.3127C12.8352 37.8131 12.6829 37.7747 12.302 37.7747V37.621H14.4729V37.7747C14.0921 37.7747 13.9397 37.8131 13.9397 38.3127V41.1563C13.9397 41.6559 14.0921 41.6943 14.4729 41.6943V41.848H12.302V41.6943C12.6829 41.6943 12.8352 41.6559 12.8352 41.1563V39.8114H11.2737V41.1563C11.2737 41.6559 11.426 41.6943 11.8069 41.6943V41.848H9.63599V41.6943Z" fill="#333333"/>
<path d="M15.387 41.6943C15.7678 41.6943 15.9202 41.6559 15.9202 41.1563V38.3127C15.9202 37.8131 15.7678 37.7747 15.387 37.7747V37.621H19.0432V38.8122H18.8909C18.8147 38.1974 18.5481 37.8515 17.7864 37.8515H17.4055C17.1008 37.8515 17.0247 37.8515 17.0247 38.159V39.5039C17.7102 39.5039 17.9007 39.1965 18.0149 38.5817H18.1673V40.6568H18.0149C17.9387 40.0419 17.7102 39.7345 17.0247 39.7345V41.0795C17.0247 41.5406 17.0628 41.6175 17.5198 41.6175C18.1292 41.6175 18.4719 41.6175 18.8528 41.1179C19.0432 40.9258 19.1575 40.6184 19.1575 40.5415L19.3098 40.5799L19.0813 41.848H15.387V41.6943Z" fill="#333333"/>
<path d="M20.2236 41.6943C20.6045 41.6943 20.7568 41.6559 20.7568 41.1563V38.3127C20.7568 37.8131 20.6045 37.7747 20.2236 37.7747V37.621H21.5947C22.2803 37.621 22.9658 37.621 23.2705 37.6978C23.7657 37.8131 24.1846 38.159 24.1846 38.697C24.1846 39.2349 23.6895 39.6192 23.2324 39.7345L23.9561 40.8873C24.1846 41.2332 24.2989 41.4638 24.4131 41.5406C24.5274 41.6559 24.5655 41.6559 24.6416 41.6559V41.8096H23.2324L22.0518 39.8114H21.8613V41.1179C21.8613 41.6175 22.0137 41.6559 22.3945 41.6559V41.8096H20.2236V41.6943ZM21.8994 39.6192H22.0137C22.585 39.6192 23.0039 39.3502 23.0039 38.697C23.0039 38.1974 22.7373 37.8131 22.2422 37.8131C21.9375 37.8131 21.8994 37.9284 21.8994 38.159V39.6192Z" fill="#333333"/>
<path d="M25.4033 41.6943C25.7842 41.6943 25.9365 41.6559 25.9365 41.1563V38.3127C25.9365 37.8131 25.7842 37.7747 25.4033 37.7747V37.621H29.0596V38.8122H28.9073C28.8311 38.1974 28.5645 37.8515 27.8028 37.8515H27.4219C27.1172 37.8515 27.041 37.8515 27.041 38.159V39.5039C27.7266 39.5039 27.917 39.1965 28.0313 38.5817H28.1836V40.6568H28.0313C27.9551 40.0419 27.7266 39.7345 27.041 39.7345V41.0795C27.041 41.5406 27.0791 41.6175 27.5362 41.6175C28.1455 41.6175 28.4883 41.6175 28.8692 41.1179C29.0596 40.9258 29.1739 40.6184 29.1739 40.5415L29.3262 40.5799L29.0977 41.848H25.4033V41.6943Z" fill="#333333"/>
<path d="M33.2112 41.6943C33.592 41.6943 33.7444 41.6559 33.7444 41.1563V38.3126C33.7444 37.8131 33.592 37.7747 33.2112 37.7747V37.6209H35.3821V37.7747C35.0012 37.7747 34.8489 37.8131 34.8489 38.3126V39.6192L35.9915 38.5048C36.2581 38.2742 36.4104 38.0437 36.4104 37.9284C36.4104 37.7362 36.1057 37.7362 35.9153 37.7362V37.5825H37.553V37.7362C37.2102 37.7362 36.8675 37.9668 36.677 38.1205L35.6487 39.1196L37.1341 41.2716C37.2483 41.4637 37.4007 41.6559 37.6292 41.6943V41.848H35.6487V41.6943C35.763 41.6943 35.9534 41.6943 35.9534 41.5406C35.9534 41.5022 35.8772 41.3869 35.801 41.2332L34.887 39.8882L34.8108 39.965V41.1563C34.8108 41.6559 34.9632 41.6943 35.344 41.6943V41.848H33.1731V41.6943H33.2112Z" fill="#333333"/>
<path d="M38.6196 41.6943C39.0386 41.6943 39.1528 41.4637 39.1528 41.0795V38.1205C38.8862 37.7362 38.8101 37.7362 38.6196 37.7362V37.5825H40.1431L42.3902 40.1188V38.3126C42.3902 37.8131 42.1236 37.7362 41.7427 37.7362V37.5825H43.1138V37.7362C42.771 37.7362 42.6568 37.9284 42.6568 38.3126V41.9249H42.5044L39.4194 38.4664V41.0795C39.4194 41.579 39.686 41.6559 40.105 41.6559V41.8096H38.6196V41.6943Z" fill="#333333"/>
<path d="M46.3511 37.4673C47.646 37.4673 48.5601 38.428 48.5601 39.6961C48.5601 40.9642 47.646 41.9249 46.3511 41.9249C45.0562 41.9249 44.1421 40.9642 44.1421 39.6961C44.1802 38.428 45.0562 37.4673 46.3511 37.4673ZM46.3511 41.7328C47.3032 41.7328 47.3413 40.4647 47.3413 39.773C47.3413 39.0813 47.3413 37.6979 46.3511 37.6979C45.3989 37.6979 45.3608 39.0813 45.3608 39.773C45.3989 40.4647 45.3989 41.7328 46.3511 41.7328Z" fill="#333333"/>
<path d="M49.6646 38.2742C49.5884 38.0821 49.5503 37.9668 49.5122 37.89C49.4741 37.8131 49.398 37.7747 49.2456 37.7747V37.621H51.1499V37.7747C50.9976 37.7747 50.7691 37.8131 50.7691 38.0053C50.7691 38.2358 51.0357 38.9275 51.1118 39.1965L51.4546 40.2725L52.1402 38.5817C52.1021 38.3895 51.9878 38.0437 51.8736 37.9284C51.7593 37.7747 51.5689 37.7747 51.4165 37.7747V37.621H53.4732V37.7747C53.2827 37.7747 53.0542 37.8131 53.0542 38.0053C53.0542 38.1205 53.0923 38.2742 53.1304 38.3895L53.7017 40.1956L54.3111 38.5048C54.3492 38.3511 54.4253 38.1974 54.4253 38.0821C54.4253 37.8131 54.1968 37.8131 53.9683 37.8131V37.6594H55.0728V37.8131C54.8824 37.8131 54.8062 37.9668 54.73 38.159L53.3589 42.0018H53.3208L52.2925 39.0044L51.0737 42.0018H50.9595L49.6646 38.2742Z" fill="#333333"/>
<path d="M56.063 41.6943C56.4438 41.6943 56.5962 41.6559 56.5962 41.1563V38.3127C56.5962 37.8131 56.4438 37.7747 56.063 37.7747V37.621H58.2339V37.7747C57.853 37.7747 57.7007 37.8131 57.7007 38.3127V41.1948C57.7007 41.579 57.815 41.6175 58.3101 41.6175C59.0337 41.6175 59.4527 41.1179 59.605 40.4262L59.7574 40.4646L59.5288 41.848H56.0249L56.063 41.6943Z" fill="#333333"/>
<path d="M60.7095 41.6943C61.0903 41.6943 61.2427 41.6559 61.2427 41.1563V38.3127C61.2427 37.8131 61.0903 37.7747 60.7095 37.7747V37.621H64.3658V38.8122H64.2134C64.1372 38.1974 63.8706 37.8515 63.1089 37.8515H62.728C62.4234 37.8515 62.3472 37.8515 62.3472 38.159V39.5039C63.0327 39.5039 63.2232 39.1965 63.3374 38.5817H63.4898V40.6568H63.3374C63.2613 40.0419 63.0327 39.7345 62.3472 39.7345V41.0795C62.3472 41.5406 62.3853 41.6175 62.8423 41.6175C63.4517 41.6175 63.7945 41.6175 64.1753 41.1179C64.3658 40.9258 64.48 40.6184 64.48 40.5415L64.6324 40.5799L64.4038 41.848H60.7095V41.6943Z" fill="#333333"/>
<path d="M65.8132 41.6943C66.1941 41.6943 66.3464 41.6559 66.3464 41.1563V38.3127C66.3464 37.8131 66.1941 37.7747 65.8132 37.7747V37.621H67.6795C68.5174 37.621 69.1267 37.621 69.7742 38.1974C70.2312 38.5817 70.4217 39.1197 70.4217 39.6961C70.4217 40.3494 70.2312 40.8489 69.7361 41.3101C69.2029 41.8096 68.6697 41.848 67.6414 41.848H65.8132V41.6943ZM67.489 40.9258C67.489 41.4638 67.489 41.6175 68.0222 41.6175C69.0506 41.6175 69.2029 40.5031 69.2029 39.6961C69.2029 38.8891 68.9744 37.8131 67.9841 37.8131C67.5652 37.8131 67.489 37.8515 67.489 38.2742V40.9258Z" fill="#333333"/>
<path d="M76.2867 40.1187C75.9439 40.1187 75.8296 40.3493 75.8296 40.6951V41.5405C75.2583 41.8095 74.649 41.9248 74.0015 41.9248C72.8208 41.9248 71.6782 41.041 71.6782 39.696C71.6782 38.5432 72.5923 37.5056 74.1157 37.5056C74.5347 37.5056 74.7632 37.544 75.106 37.6978C75.1822 37.7362 75.2583 37.7746 75.3345 37.7746C75.4488 37.7746 75.563 37.7362 75.6392 37.5056H75.7915V38.9275H75.6392C75.4488 38.351 74.8775 37.6978 74.2681 37.6978C73.2778 37.6978 72.897 38.7737 72.897 39.6576C72.897 40.7336 73.3159 41.7327 74.23 41.7327C74.7251 41.7327 74.7251 41.31 74.7251 40.8488C74.7251 40.3109 74.5728 40.1571 74.0396 40.1571V40.0034H76.2486L76.2867 40.1187Z" fill="#333333"/>
<path d="M77.239 41.6943C77.6199 41.6943 77.7722 41.6559 77.7722 41.1563V38.3127C77.7722 37.8131 77.6199 37.7747 77.239 37.7747V37.621H80.8953V38.8122H80.7429C80.6668 38.1974 80.4002 37.8515 79.6384 37.8515H79.2576C78.9529 37.8515 78.8767 37.8515 78.8767 38.159V39.5039C79.5623 39.5039 79.7527 39.1965 79.867 38.5817H80.0193V40.6568H79.867C79.7908 40.0419 79.5623 39.7345 78.8767 39.7345V41.0795C78.8767 41.5406 78.9148 41.6175 79.3718 41.6175C79.9812 41.6175 80.324 41.6175 80.7049 41.1179C80.8953 40.9258 80.9715 40.6184 81.0095 40.5415L81.1619 40.5799L80.9334 41.848H77.239V41.6943Z" fill="#333333"/>
<path d="M84.2466 41.6943C84.6274 41.6943 84.7798 41.6559 84.7798 41.1563V38.3127C84.7798 37.8131 84.6274 37.7747 84.2466 37.7747V37.621H86.4175V37.7747C86.0366 37.7747 85.8843 37.8131 85.8843 38.3127V41.1563C85.8843 41.6559 86.0366 41.6943 86.4175 41.6943V41.848H84.2466V41.6943Z" fill="#333333"/>
<path d="M87.5603 40.4647H87.7127C87.8269 41.0411 88.2459 41.6944 88.8552 41.6944C89.2742 41.6944 89.5789 41.4638 89.5789 41.0795C89.5789 40.6952 89.3123 40.5415 89.0076 40.3494L88.322 39.9651C87.7888 39.6577 87.5603 39.3118 87.5603 38.7738C87.5603 38.0437 88.0935 37.4673 88.8552 37.4673C89.0076 37.4673 89.2742 37.5057 89.5027 37.5826C89.5408 37.621 89.655 37.621 89.6931 37.621C89.8074 37.621 89.8836 37.5826 89.8836 37.4673H90.0359L90.074 38.8123H89.9216C89.8074 38.3127 89.3884 37.7363 88.8171 37.7363C88.5125 37.7363 88.2459 37.9284 88.2459 38.2358C88.2459 38.6201 88.5125 38.7738 88.8171 38.9275L89.5789 39.3503C90.074 39.6193 90.3406 40.0804 90.3406 40.5415C90.3406 41.3869 89.7312 41.9249 88.8552 41.9634C88.4363 41.9634 88.0935 41.7712 87.9031 41.7712C87.7888 41.7712 87.7126 41.8481 87.6746 41.9634H87.5984L87.5603 40.4647Z" fill="#333333"/>
<path d="M93.6162 41.6943C93.9971 41.6943 94.1494 41.6559 94.1494 41.1563V38.3127C94.1494 37.8131 93.9971 37.7747 93.6162 37.7747V37.621H95.4063C95.9395 37.621 96.4346 37.621 96.7393 37.8131C97.0821 38.0437 97.2725 38.3127 97.2725 38.7354C97.2725 39.2349 97.0059 39.5808 96.6631 39.7729C96.3965 39.9266 96.0537 40.0035 95.6348 40.0035H95.292V41.1948C95.292 41.6943 95.4444 41.7328 95.8252 41.7328V41.8865H93.6543V41.6943H93.6162ZM95.2539 39.6961H95.3682C95.9776 39.6961 96.1299 39.3502 96.1299 38.7354C96.1299 38.3127 96.0537 37.8515 95.5586 37.8515C95.3301 37.8515 95.292 37.89 95.292 38.1205L95.2539 39.6961Z" fill="#333333"/>
<path d="M100.624 37.4673C101.919 37.4673 102.833 38.428 102.833 39.6961C102.833 40.9642 101.919 41.9249 100.624 41.9249C99.3289 41.9249 98.4148 40.9642 98.4148 39.6961C98.4148 38.428 99.3289 37.4673 100.624 37.4673ZM100.624 41.7328C101.576 41.7328 101.614 40.4647 101.614 39.773C101.614 39.0813 101.614 37.6979 100.624 37.6979C99.6716 37.6979 99.6336 39.0813 99.6336 39.773C99.6336 40.4647 99.6336 41.7328 100.624 41.7328Z" fill="#333333"/>
<path d="M103.938 38.2742C103.861 38.0821 103.823 37.9668 103.785 37.89C103.747 37.8131 103.671 37.7747 103.519 37.7747V37.621H105.423V37.7747C105.271 37.7747 105.042 37.8131 105.042 38.0053C105.042 38.2358 105.309 38.9275 105.385 39.1965L105.728 40.2725L106.413 38.5817C106.375 38.3895 106.261 38.0437 106.147 37.9284C106.032 37.7747 105.88 37.7747 105.689 37.7747V37.621H107.746V37.7747C107.556 37.7747 107.327 37.8131 107.327 38.0053C107.327 38.1205 107.365 38.2742 107.403 38.3895L107.975 40.1956L108.584 38.5048C108.622 38.3511 108.698 38.1974 108.698 38.0821C108.698 37.8131 108.47 37.8131 108.241 37.8131V37.6594H109.346V37.8131C109.155 37.8131 109.079 37.9668 109.003 38.159L107.632 42.0018H107.518L106.489 39.0044L105.271 42.0018H105.156L103.938 38.2742Z" fill="#333333"/>
<path d="M110.336 41.6943C110.717 41.6943 110.869 41.6559 110.869 41.1563V38.3127C110.869 37.8131 110.717 37.7747 110.336 37.7747V37.621H113.992V38.8122H113.84C113.763 38.1974 113.497 37.8515 112.735 37.8515H112.354C112.05 37.8515 111.973 37.8515 111.973 38.159V39.5039C112.659 39.5039 112.849 39.1965 112.964 38.5817H113.116V40.6568H112.964C112.887 40.0419 112.659 39.7345 111.973 39.7345V41.0795C111.973 41.5406 112.011 41.6175 112.469 41.6175C113.078 41.6175 113.421 41.6175 113.802 41.1179C113.992 40.9258 114.106 40.6184 114.106 40.5415L114.259 40.5799L114.03 41.848H110.336V41.6943Z" fill="#333333"/>
<path d="M115.325 41.6943C115.706 41.6943 115.858 41.6559 115.858 41.1563V38.3127C115.858 37.8131 115.706 37.7747 115.325 37.7747V37.621H116.696C117.382 37.621 118.067 37.621 118.372 37.6978C118.867 37.8131 119.286 38.159 119.286 38.697C119.286 39.2349 118.791 39.6192 118.334 39.7345L119.058 40.8873C119.286 41.2332 119.4 41.4638 119.515 41.5406C119.629 41.6559 119.667 41.6559 119.743 41.6559V41.8096H118.334L117.153 39.8114H116.963V41.1179C116.963 41.6175 117.115 41.6559 117.496 41.6559V41.8096H115.325V41.6943ZM116.963 39.6192H117.077C117.648 39.6192 118.067 39.3502 118.067 38.697C118.067 38.1974 117.801 37.8131 117.306 37.8131C117.001 37.8131 116.963 37.9284 116.963 38.159V39.6192Z" fill="#333333"/>
<path d="M121 44.0001H0V43.1931H121V44.0001Z" fill="#BF311A"/>
<path d="M120.962 15.986C120.962 24.6323 113.954 31.7031 105.385 31.7031H15.6915C7.12213 31.7031 0.114258 24.6323 0.114258 15.986V15.717C0.114258 7.07074 7.12213 0 15.6915 0H105.385C113.954 0 120.962 7.07074 120.962 15.717V15.986Z" fill="black"/>
<path d="M17.4053 23.7484V24.2096H8.9502V23.7484H9.4834C9.94044 23.7484 10.3213 23.6716 10.626 23.4794C10.8164 23.3642 11.0069 23.172 11.1211 22.8646C11.1973 22.6724 11.2354 22.1345 11.2354 21.289V10.1834C11.2354 9.29952 11.1973 8.76153 11.1211 8.56939C11.0449 8.33882 10.8545 8.14668 10.5879 7.99297C10.3213 7.83926 9.94044 7.76241 9.52149 7.76241H8.98828V7.30127H17.4434V7.76241H16.9102C16.4532 7.76241 16.0723 7.83926 15.7676 8.0314C15.5772 8.14668 15.3868 8.33882 15.2725 8.64625C15.1963 8.83839 15.1583 9.37638 15.1583 10.2218V21.3275C15.1583 22.2113 15.1963 22.7493 15.3106 22.9414C15.3868 23.172 15.5772 23.3642 15.8438 23.5179C16.1104 23.6716 16.4532 23.7484 16.9102 23.7484H17.4053Z" fill="white"/>
<path d="M29.1361 15.256C30.6595 15.6402 31.764 16.0629 32.3734 16.6009C33.2494 17.3695 33.7064 18.3302 33.7064 19.5215C33.7064 20.7896 33.2113 21.8271 32.2211 22.6725C31.0023 23.6717 29.2503 24.1712 26.9271 24.1712H18.6624V23.7101C19.4241 23.7101 19.9573 23.6332 20.2239 23.4795C20.4905 23.3258 20.6809 23.1337 20.7952 22.9031C20.9094 22.6725 20.9475 22.0961 20.9475 21.1739V10.2603C20.9475 9.33805 20.9094 8.76163 20.7952 8.53106C20.6809 8.30049 20.4905 8.10835 20.2239 7.95464C19.9573 7.80093 19.4241 7.72408 18.6624 7.72408V7.26294H26.47C28.3363 7.26294 29.6693 7.41665 30.431 7.7625C31.1927 8.10835 31.8021 8.60792 32.2591 9.29962C32.7162 9.99132 32.9447 10.7215 32.9447 11.49C32.9447 12.297 32.6781 13.0271 32.1068 13.6804C31.5736 14.3721 30.5453 14.8717 29.1361 15.256ZM24.7562 14.9485C25.8987 14.9485 26.7366 14.8332 27.2698 14.5642C27.8031 14.2953 28.222 13.911 28.5267 13.4498C28.8314 12.9503 28.9456 12.3354 28.9456 11.6053C28.9456 10.8367 28.7933 10.2219 28.5267 9.76076C28.2601 9.26119 27.8411 8.91534 27.3079 8.64635C26.7747 8.37735 25.9368 8.26207 24.7562 8.30049V14.9485ZM24.7562 15.8708V21.2891V21.904C24.7562 22.3651 24.8704 22.711 25.0989 22.9031C25.3274 23.1337 25.6321 23.249 26.0892 23.249C26.7366 23.249 27.3079 23.0953 27.8792 22.7878C28.4124 22.4804 28.8314 22.0577 29.1361 21.5197C29.4408 20.9433 29.555 20.3284 29.555 19.6367C29.555 18.8298 29.3646 18.138 29.0218 17.5232C28.679 16.9084 28.1839 16.4472 27.5745 16.2167C26.889 15.9477 25.9749 15.8324 24.7562 15.8708Z" fill="white"/>
<path d="M43.0377 23.7484V24.2096H34.5825V23.7484H35.1157C35.5728 23.7484 35.9536 23.6716 36.2583 23.4794C36.4487 23.3642 36.6392 23.172 36.7534 22.8646C36.8296 22.6724 36.8677 22.1345 36.8677 21.289V10.1834C36.8677 9.29952 36.8296 8.76153 36.7534 8.56939C36.6773 8.33882 36.4868 8.14668 36.2202 7.99297C35.9536 7.83926 35.5728 7.76241 35.1538 7.76241H34.6206V7.30127H43.0377V7.76241H42.5045C42.0474 7.76241 41.6666 7.83926 41.3619 8.0314C41.1714 8.14668 40.981 8.33882 40.8668 8.64625C40.7906 8.83839 40.7525 9.37638 40.7525 10.2218V21.3275C40.7525 22.2113 40.7906 22.7493 40.9048 22.9414C40.981 23.172 41.1714 23.3642 41.438 23.5179C41.7046 23.6716 42.0474 23.7484 42.5045 23.7484H43.0377Z" fill="white"/>
<path d="M55.149 6.91699L55.2633 12.5659H54.7682C54.5396 11.1441 53.9683 9.99123 53.0543 9.14581C52.1402 8.3004 51.15 7.83926 50.0835 7.83926C49.2456 7.83926 48.5982 8.06983 48.1411 8.53097C47.646 8.9921 47.4175 9.49166 47.4175 10.1065C47.4175 10.4908 47.4937 10.7982 47.6841 11.1056C47.9126 11.4899 48.2935 11.8742 48.8267 12.2585C49.2076 12.5275 50.0835 13.027 51.4547 13.7187C53.359 14.6794 54.6539 15.6017 55.3394 16.4856C55.9869 17.331 56.2916 18.3301 56.2916 19.4445C56.2916 20.8663 55.7584 22.0576 54.692 23.0952C53.6256 24.0943 52.2925 24.6323 50.6548 24.6323C50.1216 24.6323 49.6646 24.5938 49.2076 24.4786C48.7505 24.3633 48.1792 24.1711 47.4937 23.8637C47.1128 23.71 46.8081 23.6332 46.5415 23.6332C46.3511 23.6332 46.1226 23.71 45.8941 23.9021C45.6655 24.0559 45.4751 24.3249 45.3228 24.6707H44.9038V18.2917H45.3228C45.6655 20.0594 46.3511 21.4428 47.3794 22.365C48.4077 23.2873 49.4742 23.7869 50.6548 23.7869C51.5689 23.7869 52.2925 23.5179 52.8258 23.0183C53.359 22.5187 53.6256 21.9423 53.6256 21.2506C53.6256 20.8663 53.5113 20.4821 53.3209 20.0978C53.1304 19.7135 52.7877 19.3676 52.3687 19.0218C51.9498 18.6759 51.188 18.2532 50.1216 17.7152C48.6363 16.9467 47.5698 16.3318 46.9224 15.7938C46.2749 15.2559 45.7798 14.6794 45.437 14.0262C45.0942 13.3729 44.9038 12.6428 44.9038 11.8742C44.9038 10.5292 45.3989 9.37638 46.3511 8.45411C47.3032 7.49341 48.522 7.03228 49.9693 7.03228C50.5025 7.03228 50.9976 7.10913 51.5308 7.22442C51.9117 7.3397 52.3687 7.49341 52.9019 7.80083C53.4351 8.06983 53.816 8.22354 54.0445 8.22354C54.2349 8.22354 54.4254 8.14669 54.5396 8.0314C54.6539 7.87769 54.7682 7.57027 54.8824 7.0707H55.149V6.91699Z" fill="white"/>
<path d="M58.4624 24.4402L59.8716 10.3755C59.9097 9.83754 59.9478 9.41483 59.9478 9.10741C59.9478 8.60785 59.8335 8.26199 59.5669 7.993C59.3003 7.724 58.8433 7.60872 58.1196 7.60872L58.2339 7.14758H64.3658L64.2515 7.60872C63.4136 7.60872 62.8804 7.76243 62.5757 8.06985C62.271 8.37728 62.0806 9.14584 61.9663 10.3755L61.0523 19.4445L67.1842 9.60697C67.1842 9.45326 67.1842 9.29955 67.1842 9.18426C67.1842 8.72313 67.0699 8.33885 66.8033 8.10828C66.5367 7.83929 65.9654 7.68557 65.0894 7.64715L65.2037 7.18601H71.7926L71.6783 7.64715C70.9166 7.64715 70.3834 7.724 70.1549 7.83929C69.9645 7.91614 69.8121 8.06985 69.6598 8.30042C69.5455 8.49256 69.4312 8.83841 69.3551 9.33798C69.317 9.49169 69.2408 10.4524 69.0504 12.2201C68.86 13.9878 68.6314 16.4471 68.2887 19.5982L73.4684 11.3747C74.0397 10.4908 74.3825 9.87597 74.5348 9.49169C74.6871 9.14584 74.7633 8.83841 74.7633 8.56942C74.7633 8.33885 74.6491 8.14671 74.4586 7.95457C74.2682 7.76243 73.9254 7.64715 73.4684 7.60872L73.5826 7.14758H78.4196L78.3053 7.60872C77.8864 7.64715 77.5055 7.76243 77.1628 7.91614C76.82 8.10828 76.4391 8.45413 75.9821 8.9537C75.7155 9.26112 75.1823 10.0297 74.3825 11.3362L66.1939 24.4017H65.7369L67.0699 11.3362L58.9194 24.4017H58.4624V24.4402Z" fill="white"/>
<path d="M83.3329 16.6008C83.3329 17.8305 83.0282 19.0602 82.3807 20.2899C81.7332 21.5196 80.8572 22.4803 79.7147 23.172C78.5721 23.9021 77.4676 24.248 76.4012 24.248C75.2967 24.248 74.4207 23.9021 73.7351 23.172C73.0496 22.4419 72.7068 21.5196 72.7068 20.3668C72.7068 19.1371 73.0496 17.9074 73.7351 16.7161C74.4207 15.4864 75.2967 14.5257 76.4392 13.7956C77.5818 13.0655 78.6482 12.7196 79.7147 12.7196C80.7811 12.7196 81.619 13.0655 82.3045 13.7956C82.9901 14.5257 83.3329 15.448 83.3329 16.6008ZM81.3905 15.717C81.3905 14.9484 81.2 14.372 80.8572 13.9493C80.4764 13.5266 80.0194 13.3345 79.4481 13.3345C78.2674 13.3345 77.1629 14.2183 76.1726 15.9476C75.1824 17.6768 74.6873 19.4445 74.6873 21.1353C74.6873 21.9423 74.8777 22.5187 75.2586 22.9414C75.6394 23.3641 76.1345 23.5947 76.7058 23.5947C77.8484 23.5947 78.9148 22.7109 79.9051 20.9816C80.8953 19.2908 81.3905 17.5231 81.3905 15.717Z" fill="white"/>
<path d="M84.8943 13.4113L88.9695 12.7196L87.2937 18.7528C88.7029 16.255 89.9598 14.5257 91.1024 13.565C91.7498 12.9886 92.283 12.7196 92.702 12.7196C92.9686 12.7196 93.159 12.7965 93.3114 12.9502C93.4637 13.1039 93.5399 13.3345 93.5399 13.6419C93.5399 14.1799 93.3875 14.7179 93.1209 15.2174C92.9305 15.6017 92.6639 15.7938 92.283 15.7938C92.0926 15.7938 91.9403 15.717 91.826 15.6017C91.7117 15.4864 91.5975 15.2943 91.5975 15.0253C91.5975 14.8716 91.5594 14.7563 91.4832 14.7179C91.407 14.641 91.3309 14.6026 91.2547 14.6026C91.1024 14.6026 90.9881 14.641 90.8738 14.7179C90.6834 14.8331 90.3406 15.1406 89.9217 15.6786C89.2742 16.4855 88.5506 17.5615 87.7888 18.8296C87.4461 19.3676 87.1795 19.9825 86.9129 20.6742C86.5701 21.6349 86.3797 22.1729 86.3416 22.365L85.9607 23.9406H84.1707L86.3035 16.2165C86.5701 15.2943 86.6844 14.6794 86.6844 14.2952C86.6844 14.1414 86.6082 14.0262 86.4939 13.9109C86.3416 13.7956 86.1511 13.7187 85.8845 13.7187C85.7322 13.7187 85.4275 13.7572 85.0086 13.834L84.8943 13.4113Z" fill="white"/>
<path d="M99.5193 6.30225L95.2918 21.1739C95.1013 21.904 94.9871 22.3651 94.9871 22.5188C94.9871 22.6341 95.0252 22.7494 95.1013 22.8263C95.1775 22.9031 95.2537 22.9415 95.3679 22.9415C95.5203 22.9415 95.6345 22.8647 95.825 22.7494C96.2058 22.4036 96.5867 21.8656 97.0057 21.097L97.3484 21.4813C96.6248 22.5957 95.9773 23.3643 95.3679 23.787C94.9109 24.0944 94.492 24.2481 94.1111 24.2481C93.8064 24.2481 93.5779 24.1328 93.3875 23.9407C93.197 23.7101 93.0828 23.4795 93.0828 23.2105C93.0828 22.9031 93.197 22.2883 93.4636 21.366L96.8152 9.68391C97.0818 8.72321 97.1961 8.18522 97.1961 8.0315C97.1961 7.83936 97.1199 7.68565 96.9676 7.53194C96.8152 7.41666 96.5867 7.3398 96.2439 7.3398C96.0535 7.3398 95.7869 7.37823 95.3679 7.41666V6.95552L99.5193 6.30225Z" fill="white"/>
<path d="M112.659 6.11011L108.431 21.1354C108.203 21.9424 108.089 22.4804 108.089 22.7494C108.089 22.8263 108.127 22.9031 108.165 22.9415C108.203 23.0184 108.241 23.0568 108.317 23.0568C108.393 23.0568 108.47 23.0184 108.546 22.9031C108.736 22.711 109.003 22.2114 109.422 21.4429L109.841 21.7119C109.384 22.5188 108.927 23.1721 108.431 23.5948C107.974 24.056 107.517 24.2865 107.098 24.2865C106.87 24.2865 106.68 24.1712 106.527 23.9791C106.375 23.787 106.299 23.518 106.299 23.1337C106.299 22.6726 106.413 22.0193 106.641 21.2507L107.098 19.6752C105.842 21.5197 104.661 22.8263 103.633 23.5564C102.909 24.056 102.223 24.2865 101.576 24.2865C100.89 24.2865 100.319 24.0175 99.824 23.4411C99.3289 22.8647 99.0623 22.1346 99.0623 21.1739C99.0623 19.9442 99.4812 18.6376 100.281 17.2158C101.119 15.8324 102.185 14.6795 103.518 13.7957C104.585 13.104 105.537 12.7197 106.451 12.7197C106.908 12.7197 107.327 12.7966 107.67 12.9887C108.013 13.1808 108.355 13.4883 108.66 13.911L109.803 9.76076C109.917 9.29963 110.031 8.91535 110.107 8.64635C110.183 8.3005 110.26 8.0315 110.26 7.80094C110.26 7.6088 110.183 7.49351 110.069 7.37823C109.879 7.22452 109.688 7.14766 109.422 7.14766C109.231 7.14766 108.927 7.18609 108.508 7.22452V6.76338L112.659 6.11011ZM108.013 15.1022C108.013 14.5643 107.86 14.1415 107.517 13.8341C107.175 13.5267 106.794 13.3346 106.261 13.3346C105.156 13.3346 103.975 14.18 102.795 15.9092C101.576 17.6385 101.005 19.2909 101.005 20.8664C101.005 21.4813 101.157 21.9808 101.462 22.2883C101.766 22.6341 102.147 22.7878 102.566 22.7878C103.518 22.7878 104.699 21.8656 106.032 19.9826C107.365 18.1381 108.013 16.5241 108.013 15.1022Z" fill="white"/>
<line x1="131.486" y1="44" x2="131.486" y2="1.74846e-08" stroke="#E0E0E0" stroke-width="0.8"/>
<path d="M144.233 42.7945H142.393L141.973 43.9475H141.394L143.077 39.5449H143.576L145.259 43.9475H144.654L144.233 42.7945ZM142.577 42.3228H144.076L143.313 40.2787L142.577 42.3228Z" fill="#333333"/>
<path d="M150.096 43.9475H149.518L147.309 40.567V43.9475H146.731V39.5449H147.309L149.544 42.9517V39.5449H150.122V43.9475H150.096Z" fill="#333333"/>
<path d="M155.38 43.9475H154.801L152.593 40.567V43.9475H152.015V39.5449H152.593L154.828 42.9517V39.5449H155.406V43.9475H155.38Z" fill="#333333"/>
<path d="M157.904 43.9475H157.325V39.5449H157.904V43.9475Z" fill="#333333"/>
<path d="M161.295 43.1876L162.557 39.5711H163.188L161.558 43.9738H161.032L159.402 39.5449H160.033L161.295 43.1876Z" fill="#333333"/>
<path d="M167.131 41.9035H165.212V43.4497H167.42V43.9214H164.634V39.5188H167.394V39.9905H165.212V41.4056H167.131V41.9035Z" fill="#333333"/>
<path d="M170.654 42.1655H169.628V43.9475H169.05V39.5449H170.496C170.995 39.5449 171.363 39.6497 171.653 39.8856C171.916 40.1215 172.047 40.4359 172.047 40.8814C172.047 41.1435 171.968 41.4056 171.837 41.589C171.679 41.7986 171.495 41.9559 171.206 42.0345L172.231 43.8951V43.9213H171.6L170.654 42.1655ZM169.602 41.6938H170.496C170.785 41.6938 171.022 41.6152 171.179 41.458C171.337 41.3007 171.442 41.1173 171.442 40.8552C171.442 40.5932 171.363 40.3835 171.206 40.2263C171.048 40.069 170.811 40.0166 170.496 40.0166H169.602V41.6938Z" fill="#333333"/>
<path d="M175.017 41.9821C174.518 41.8511 174.15 41.6677 173.94 41.458C173.729 41.2484 173.598 40.9863 173.598 40.698C173.598 40.3574 173.729 40.0691 174.019 39.8332C174.308 39.5974 174.649 39.4926 175.096 39.4926C175.412 39.4926 175.675 39.545 175.911 39.676C176.148 39.807 176.332 39.9643 176.463 40.1477C176.595 40.3311 176.647 40.567 176.647 40.8291H176.069C176.069 40.567 175.99 40.3574 175.806 40.2001C175.648 40.0429 175.386 39.9643 175.096 39.9643C174.807 39.9643 174.597 40.0167 174.439 40.1477C174.281 40.2787 174.203 40.436 174.203 40.6718C174.203 40.8553 174.281 41.0125 174.439 41.1173C174.597 41.2484 174.86 41.3532 175.228 41.458C175.596 41.5628 175.885 41.6677 176.095 41.7987C176.306 41.9297 176.463 42.0608 176.542 42.2442C176.647 42.4014 176.7 42.6111 176.7 42.8207C176.7 43.1876 176.569 43.4497 176.279 43.6855C175.99 43.8952 175.622 44 175.175 44C174.86 44 174.597 43.9476 174.334 43.8166C174.071 43.7117 173.861 43.5545 173.729 43.3449C173.598 43.1352 173.519 42.9256 173.519 42.6635H174.097C174.097 42.9256 174.203 43.1352 174.387 43.2924C174.571 43.4497 174.833 43.5283 175.175 43.5283C175.491 43.5283 175.727 43.4759 175.885 43.3449C176.043 43.2138 176.122 43.0566 176.122 42.8469C176.122 42.6373 176.043 42.4538 175.885 42.349C175.675 42.218 175.412 42.1132 175.017 41.9821Z" fill="#333333"/>
<path d="M180.67 42.7945H178.829L178.409 43.9475H177.804L179.487 39.5449H179.986L181.669 43.9475H181.064L180.67 42.7945ZM179.013 42.3228H180.512L179.75 40.2787L179.013 42.3228Z" fill="#333333"/>
<path d="M184.771 42.1655H183.745V43.9475H183.167V39.5449H184.613C185.112 39.5449 185.48 39.6497 185.77 39.8856C186.032 40.1215 186.164 40.4359 186.164 40.8814C186.164 41.1435 186.085 41.4056 185.954 41.589C185.796 41.7986 185.612 41.9559 185.323 42.0345L186.348 43.8951V43.9213H185.717L184.771 42.1655ZM183.745 41.6938H184.639C184.928 41.6938 185.165 41.6152 185.323 41.458C185.48 41.3007 185.586 41.1173 185.586 40.8552C185.586 40.5932 185.507 40.3835 185.349 40.2263C185.191 40.069 184.955 40.0166 184.639 40.0166H183.745V41.6938Z" fill="#333333"/>
<path d="M189.029 41.7462L190.186 39.5449H190.843L189.318 42.2966V43.9213H188.74V42.2966L187.215 39.5449H187.873L189.029 41.7462Z" fill="#333333"/>
<path d="M183.22 33.7797V35.4044C183.22 35.6665 183.246 35.85 183.272 35.9286C183.298 36.0072 183.377 36.0596 183.482 36.0596C183.64 36.0596 183.772 35.9548 183.877 35.7451L184.245 35.8762C184.061 36.3479 183.64 36.5837 183.009 36.5837C182.667 36.5837 182.405 36.5051 182.221 36.3217C182.037 36.1644 181.958 35.9024 181.958 35.5617V33.7535H181.511V33.3342H181.616C181.931 33.3342 182.194 33.2293 182.405 33.0459C182.615 32.8625 182.746 32.6004 182.799 32.3121H183.193V33.3342H184.113V33.7535H183.22V33.7797Z" fill="#C94927"/>
<path d="M186.558 34.3562V35.5355C186.558 35.7189 186.584 35.85 186.637 35.9286C186.69 36.0072 186.795 36.0334 186.952 36.0596V36.4527H184.849V36.0596C185.06 36.0596 185.191 36.0334 185.27 35.9548C185.323 35.8762 185.349 35.7452 185.349 35.5617V32.4432C185.349 32.2597 185.323 32.1287 185.27 32.0501C185.217 31.9715 185.086 31.9453 184.849 31.9453V31.5522L186.584 31.2639V33.8059C186.742 33.6225 186.926 33.4914 187.11 33.3866C187.294 33.308 187.505 33.2556 187.715 33.2556C187.978 33.2556 188.188 33.308 188.398 33.4128C188.582 33.5176 188.714 33.6749 188.766 33.8321C188.819 33.9893 188.872 34.2252 188.872 34.5135V35.5617C188.872 35.7452 188.898 35.8762 188.95 35.9548C189.003 36.0334 189.134 36.0596 189.345 36.0596V36.4527H187.242V36.0596C187.347 36.0596 187.426 36.0334 187.505 35.981C187.583 35.9286 187.61 35.7976 187.61 35.5617V34.3824C187.61 34.068 187.478 33.8845 187.242 33.8845C187.136 33.8845 187.031 33.9369 186.926 34.0156C186.795 34.0942 186.663 34.199 186.558 34.3562Z" fill="#C94927"/>
<path d="M144.207 18.0298L144.812 0.419312H162.478C161.689 2.41097 161.032 3.7999 160.559 4.61228C160.085 5.42467 159.717 5.81776 159.455 5.84397C159.192 5.84397 158.429 5.84397 157.115 5.84397H147.493L147.257 14.1513C148.992 12.7362 151.068 12.0286 153.513 12.0286C156.51 12.0286 159.218 13.0506 161.584 15.0947C163.95 17.1388 165.133 19.969 165.133 23.5855C165.133 27.6212 163.687 30.7922 160.795 33.0983C157.904 35.4044 154.486 36.5313 150.516 36.5313C147.782 36.5313 145.495 36.0072 143.681 34.9327C141.867 33.8583 140.974 32.548 140.974 31.0018C140.974 30.1632 141.289 29.4556 141.946 28.8529C142.577 28.2502 143.34 27.9619 144.155 27.9619C145.469 27.9619 146.599 28.8529 147.493 30.6611C148.44 32.548 149.754 33.4914 151.41 33.4914C153.014 33.4914 154.223 32.81 155.012 31.4473C155.827 30.0846 156.221 27.464 156.221 23.5855C156.221 20.5456 155.853 18.4229 155.091 17.165C154.355 15.9333 153.145 15.3044 151.489 15.3044C149.728 15.3044 148.387 16.1954 147.441 18.0036H144.207V18.0298Z" fill="#C94927"/>
<path d="M182.799 30.0322C183.167 27.9095 183.272 23.9261 183.272 18.2132C183.272 12.1596 183.009 8.09768 182.51 6.0274C181.984 3.98332 181.011 2.93508 179.565 2.93508C178.277 2.93508 177.357 3.90471 176.831 5.87016C176.279 7.80941 176.016 11.8451 176.016 17.9774C176.016 23.6117 176.253 27.595 176.726 29.9535C177.199 32.3121 178.225 33.4652 179.802 33.4652L179.67 36.5313C177.068 36.5313 174.781 35.7189 172.809 34.0941C170.837 32.4693 169.418 30.3728 168.55 27.8046C167.683 25.2365 167.262 21.9607 167.262 17.925C167.262 12.081 168.419 7.62597 170.706 4.55986C172.993 1.51995 175.99 0 179.644 0C183.219 0 186.164 1.51995 188.503 4.53365C190.843 7.54735 192 11.9238 192 17.6891C192 23.0089 191.237 27.1495 189.739 30.1632L182.799 30.0322Z" fill="#C94927"/>
</svg>
