<?xml version="1.0" ?><!DOCTYPE svg  PUBLIC '-//W3C//DTD SVG 1.1//EN'  'http://www.w3.org/Graphics/SVG/1.1/DTD/svg11.dtd'><svg enable-background="new 0 0 90 90" height="90px" id="Layer_1" version="1.1" viewBox="0 0 90 90" width="90px" xml:space="preserve" xmlns="http://www.w3.org/2000/svg" xmlns:xlink="http://www.w3.org/1999/xlink"><circle cx="45" cy="45" fill="#ED655F" r="45"/><circle cx="23" cy="69" fill="#FFCC00" r="3"/><path d="M23,73c-2.206,0-4-1.794-4-4s1.794-4,4-4s4,1.794,4,4S25.206,73,23,73z M23,67c-1.103,0-2,0.897-2,2  s0.897,2,2,2s2-0.897,2-2S24.103,67,23,67z" fill="#383128"/><path d="M45,63c-0.553,0-1-0.448-1-1V50.426c0-8.28,3.225-16.064,9.08-21.92l11.213-11.213  c0.391-0.391,1.023-0.391,1.414,0s0.391,1.023,0,1.414L54.494,29.92C49.017,35.398,46,42.681,46,50.426V62  C46,62.552,45.553,63,45,63z" fill="#3F291E"/><path d="M67,67c-0.26,0-0.521-0.11-0.71-0.29C66.109,66.52,66,66.27,66,66c0-0.26,0.109-0.52,0.29-0.71  c0.38-0.37,1.04-0.37,1.42,0C67.89,65.48,68,65.74,68,66c0,0.26-0.11,0.52-0.29,0.71C67.52,66.89,67.26,67,67,67z" fill="#FFFFFF"/><path d="M63.53,63.67L63.53,63.67L63.53,63.67c-0.341-0.43-0.271-1.06,0.159-1.4l0,0  c0.431-0.35,1.061-0.28,1.41,0.16l0,0c0.34,0.43,0.271,1.06-0.16,1.4l0,0c-0.189,0.15-0.409,0.22-0.62,0.22l0,0  C64.02,64.05,63.729,63.92,63.53,63.67z M61.3,60.06L61.3,60.06L61.3,60.06c-0.22-0.51,0.02-1.09,0.53-1.31l0,0  c0.51-0.22,1.09,0.02,1.31,0.53l0,0c0.22,0.51-0.02,1.09-0.53,1.31l0,0c-0.13,0.05-0.26,0.08-0.39,0.08l0,0  C61.83,60.67,61.46,60.44,61.3,60.06z M60.42,55.8c-0.01-0.55,0.43-1,0.979-1.01l0,0c0.551-0.01,1.011,0.43,1.021,0.99v-0.01  c0,0.56-0.44,1.01-0.99,1.02l0,0h-0.01l0,0C60.87,56.79,60.42,56.35,60.42,55.8z M61.67,52.82c-0.54-0.13-0.88-0.66-0.75-1.2l0,0  c0.12-0.54,0.649-0.88,1.189-0.75l0,0c0.54,0.12,0.881,0.65,0.761,1.19l0,0c-0.11,0.47-0.521,0.78-0.98,0.78l0,0  C61.819,52.84,61.74,52.83,61.67,52.82z" fill="#FFFFFF"/><path d="M63,49c-0.26,0-0.521-0.11-0.71-0.29C62.109,48.52,62,48.27,62,48s0.109-0.52,0.29-0.71  c0.37-0.37,1.04-0.37,1.42,0C63.89,47.48,64,47.74,64,48c0,0.26-0.11,0.52-0.29,0.71C63.52,48.89,63.26,49,63,49z" fill="#FFFFFF"/><circle cx="45" cy="67" fill="#FFCC00" r="5"/><path d="M45,73c-3.309,0-6-2.691-6-6s2.691-6,6-6s6,2.691,6,6S48.309,73,45,73z M45,63c-2.206,0-4,1.794-4,4  s1.794,4,4,4s4-1.794,4-4S47.206,63,45,63z" fill="#383128"/><path d="M22.17,62.56c-0.311-0.46-0.19-1.08,0.28-1.39l0,0c0.449-0.31,1.069-0.18,1.38,0.28l0,0  c0.31,0.46,0.18,1.07-0.271,1.38l0,0C23.39,62.95,23.189,63,23,63l0,0C22.68,63,22.359,62.84,22.17,62.56z M25.37,60.16  c-0.42-0.37-0.46-1-0.09-1.41l0,0l0,0l0,0c0.369-0.42,1-0.46,1.409-0.09l0,0c0.42,0.36,0.46,1,0.091,1.41l0,0  c-0.2,0.22-0.471,0.34-0.75,0.34l0,0C25.79,60.41,25.56,60.33,25.37,60.16z M27.74,56.95c-0.521-0.2-0.78-0.77-0.591-1.29l0,0  c0.19-0.52,0.771-0.78,1.29-0.59l0,0c0.511,0.19,0.78,0.77,0.591,1.29l0,0c-0.15,0.4-0.53,0.65-0.94,0.65l0,0  C27.97,57.01,27.859,56.99,27.74,56.95z M28.77,53.09c-0.55-0.01-0.979-0.48-0.96-1.03l0,0c0,0,0,0-0.01,0l0,0  c0.02-0.55,0.48-0.98,1.04-0.97l0,0c0.55,0.02,0.979,0.48,0.97,1.03H29.8c-0.01,0.54-0.46,0.97-0.99,0.97l0,0  C28.8,53.09,28.79,53.09,28.77,53.09z M27.56,48.24c-0.069-0.55,0.32-1.05,0.86-1.13l0,0c0.55-0.07,1.05,0.32,1.13,0.87l0,0  c0.07,0.54-0.32,1.05-0.87,1.12l0,0c-0.04,0-0.08,0.01-0.13,0.01l0,0C28.06,49.11,27.63,48.74,27.56,48.24z M26.979,44.28  c-0.069-0.55,0.311-1.05,0.86-1.12l0,0c0.55-0.08,1.05,0.3,1.13,0.85l0,0c0.07,0.55-0.31,1.05-0.86,1.13l0,0  c-0.05,0-0.09,0.01-0.14,0.01l0,0C27.479,45.15,27.05,44.78,26.979,44.28z M27.66,41.16c-0.551-0.01-0.99-0.47-0.98-1.02l0,0  c0.01-0.55,0.47-0.99,1.021-0.98l0,0c0.56,0.01,0.989,0.47,0.979,1.02l0,0c-0.01,0.55-0.45,0.98-1,0.98l0,0  C27.68,41.16,27.67,41.16,27.66,41.16z M28.04,37.18c-0.521-0.2-0.771-0.78-0.57-1.3l0,0c0.2-0.51,0.78-0.77,1.29-0.57l0,0  c0.521,0.21,0.771,0.79,0.57,1.3l0,0c-0.15,0.4-0.53,0.64-0.931,0.64l0,0C28.28,37.25,28.149,37.23,28.04,37.18z M29.88,33.64  c-0.39-0.38-0.4-1.02-0.01-1.41l0,0c0.39-0.39,1.02-0.4,1.41-0.01l0,0c0.399,0.39,0.399,1.02,0.01,1.41l0,0  c-0.19,0.2-0.45,0.3-0.71,0.3l0,0C30.33,33.93,30.069,33.84,29.88,33.64z" fill="#FFFFFF"/><circle cx="67" cy="69" fill="#FFCC00" r="3"/><path d="M67,73c-2.206,0-4-1.794-4-4s1.794-4,4-4s4,1.794,4,4S69.206,73,67,73z M67,67c-1.103,0-2,0.897-2,2  s0.897,2,2,2s2-0.897,2-2S68.103,67,67,67z" fill="#383128"/><path d="M65,29c-0.553,0-1-0.448-1-1v-9h-9c-0.553,0-1-0.448-1-1s0.447-1,1-1h10c0.553,0,1,0.448,1,1v10  C66,28.552,65.553,29,65,29z" fill="#3F291E"/><path d="M60,45c-0.256,0-0.512-0.098-0.707-0.293c-0.391-0.391-0.391-1.023,0-1.414l6-6  c0.391-0.391,1.023-0.391,1.414,0s0.391,1.023,0,1.414l-6,6C60.512,44.902,60.256,45,60,45z" fill="#3F291E"/><path d="M66,45c-0.256,0-0.512-0.098-0.707-0.293l-6-6c-0.391-0.391-0.391-1.023,0-1.414s1.023-0.391,1.414,0l6,6  c0.391,0.391,0.391,1.023,0,1.414C66.512,44.902,66.256,45,66,45z" fill="#3F291E"/><path d="M28,29c-0.256,0-0.512-0.098-0.707-0.293c-0.391-0.391-0.391-1.023,0-1.414l6-6  c0.391-0.391,1.023-0.391,1.414,0s0.391,1.023,0,1.414l-6,6C28.512,28.902,28.256,29,28,29z" fill="#3F291E"/><path d="M34,29c-0.256,0-0.512-0.098-0.707-0.293l-6-6c-0.391-0.391-0.391-1.023,0-1.414s1.023-0.391,1.414,0l6,6  c0.391,0.391,0.391,1.023,0,1.414C34.512,28.902,34.256,29,34,29z" fill="#3F291E"/></svg>